<svg xmlns="http://www.w3.org/2000/svg" width="18" height="18"><path fill="#22c3ca" d="M17 9c0 4.411-3.589 8-8 8s-8-3.589-8-8 3.589-8 8-8l.364.364a7.724 7.724 0 00-.369-.008c-4.212 0-7.64 3.427-7.64 7.639s3.428 7.64 7.64 7.64l7.64-7.64a7.58 7.58 0 00-.01-.37zm-8.407.23l-2.107-.001a.178.178 0 000 .355l1.677.001-3.032 3.033a.177.177 0 00.125.304.177.177 0 00.126-.053l3.033-3.033.001 1.678a.178.178 0 00.356 0L8.77 9.407zm4.024-4.1L9.585 8.164V6.486a.178.178 0 10-.356 0v2.107c0 .098.08.177.178.177h2.107a.177.177 0 100-.355H9.836l3.033-3.033a.178.178 0 000-.251zM9.364 1.365l7.262 7.262a7.65 7.65 0 00-7.262-7.262z"/><path fill="none" stroke="#22c3ca" stroke-miterlimit="20" stroke-width=".5" d="M17 9c0 4.411-3.589 8-8 8s-8-3.589-8-8 3.589-8 8-8l.364.364a7.724 7.724 0 00-.369-.008c-4.212 0-7.64 3.427-7.64 7.639s3.428 7.64 7.64 7.64l7.64-7.64a7.58 7.58 0 00-.01-.37zm-8.407.23l-2.107-.001a.178.178 0 000 .355l1.677.001-3.032 3.033a.177.177 0 00.125.304.177.177 0 00.126-.053l3.033-3.033.001 1.678a.178.178 0 00.356 0L8.77 9.407zm4.024-4.1L9.585 8.164V6.486a.178.178 0 10-.356 0v2.107c0 .098.08.177.178.177h2.107a.177.177 0 100-.355H9.836l3.033-3.033a.178.178 0 000-.251zM9.364 1.365l7.262 7.262a7.65 7.65 0 00-7.262-7.262z"/></svg>