<svg xmlns="http://www.w3.org/2000/svg" width="40" height="40"><path fill="#22c3ca" d="M34.069 14.204c-.675 1.15-1.306 2.328-2.04 3.437-.803 1.215-1.727 2.345-2.55 3.548-.477.697-.39 1.16.207 1.765.654.664 1.33 1.307 1.985 1.97.944.95 1.853 1.928 2.398 3.18.439 1.207-.815 1.188-1.371 1.193-1.303.014-2.606.01-3.907 0-.455-.004-.977.023-1.343-.202-.715-.441-1.372-.993-1.998-1.56-.56-.506-1.005-1.14-1.568-1.642-.909-.812-1.592-.625-1.943.54-.188.624-.234 1.293-.314 1.944-.069.557-.391.872-.911.885-1.068.029-2.153.111-3.2-.04-2.658-.381-4.8-1.803-6.52-3.778a27.643 27.643 0 01-3.088-4.303c-1.347-2.333-2.504-4.775-3.74-7.171-.054-.151-.439-.832 1.176-.832 1.223 0 2.448.026 3.674 0 .767-.016 1.256.24 1.589.953.707 1.512 1.439 3.014 2.247 4.473.37.667.896 1.267 1.437 1.814.55.553 1.118.367 1.336-.383.39-1.345.394-2.719.267-4.103-.107-1.176-.333-2.233-1.85-2.36.318-.61.765-.885 1.323-.982a14.898 14.898 0 015.163-.021c.8.14 1.08.5 1.15 1.313.023.291.024.584.018.875-.027 1.303-.082 2.605-.08 3.908 0 .497.059 1.016.213 1.486.195.593.66.677 1.135.265.262-.228.512-.479.727-.75 1.363-1.72 2.379-3.639 3.19-5.668.231-.578.584-.826 1.233-.826h4.724zM19.999 0C8.956 0 0 8.957 0 20c0 11.046 8.955 20 20 20s20-8.954 20-20z"/></svg>