<svg xmlns="http://www.w3.org/2000/svg" width="32" height="32"><path fill="#22c3ca" d="M16 32C7.177 32 0 24.822 0 16 0 7.177 7.177 0 16 0s16 7.177 16 16l-.728.728c.011-.241.017-.484.017-.728L16 .711C7.57.711.711 7.57.711 16S7.57 31.289 16 31.289c.244 0 .487-.006.728-.017zm15.272-15.272L16.728 31.272c7.852-.37 14.174-6.692 14.544-14.544z"/><path fill="#22c3ca" d="M20.616 24.099c-3.072 0-6.254-1.42-8.73-3.896-2.6-2.6-4.019-5.866-3.943-9.011l.003-.118.072-.092c.21-.268.431-.521.66-.751a8.333 8.333 0 012.893-1.883.931.931 0 01.336-.058c.379 0 1 .202 1.131.566.385 1.067.872 2.464 1.224 3.798.077.284-.03 1.017-.37 1.231l-1.259.799c-.084.052-.118.147-.132.217-.042.215.037.492.206.723a18.09 18.09 0 001.712 2.006c.648.637 1.321 1.21 1.996 1.701.344.252.816.277.94.077l.8-1.263c.247-.386 1.01-.39 1.018-.39.075 0 .14.006.197.018 1.63.364 2.599.677 3.838 1.24.384.173.659 1.004.481 1.456a8.296 8.296 0 01-1.879 2.89 8.725 8.725 0 01-.752.661l-.093.073zM12.34 19.65l.053.053c2.34 2.34 5.34 3.685 8.224 3.685l.097-.002c.212-.17.412-.348.595-.531a7.604 7.604 0 001.718-2.643c.046-.118-.064-.49-.154-.58-1.147-.512-2.08-.813-3.657-1.164-.227-.004-.44.058-.493.098l-.765 1.22c-.342.554-1.281.618-1.962.12a18.562 18.562 0 01-2.079-1.774 18.816 18.816 0 01-1.784-2.089c-.286-.392-.409-.87-.329-1.278.058-.296.219-.54.453-.684l1.256-.797c.024-.05.08-.355.062-.451-.344-1.305-.825-2.681-1.204-3.735-.026.006-.268-.097-.463-.097-.054 0-.077.01-.079.01a7.602 7.602 0 00-3.176 2.315c-.032 2.917 1.307 5.943 3.687 8.324zm11.362-3.454a.356.356 0 01-.355-.356c0-3.986-3.244-7.229-7.231-7.229a.356.356 0 010-.711c4.38 0 7.942 3.562 7.942 7.94 0 .197-.16.356-.356.356"/><path fill="#22c3ca" d="M21.474 16.198a.356.356 0 01-.356-.356 5.008 5.008 0 00-5.002-5 .355.355 0 110-.712 5.719 5.719 0 015.713 5.712.355.355 0 01-.355.356"/><path fill="#22c3ca" d="M19.126 16.19a.356.356 0 01-.355-.355 2.657 2.657 0 00-2.655-2.654.355.355 0 110-.711 3.37 3.37 0 013.366 3.365c0 .196-.16.356-.356.356"/></svg>