<svg xmlns="http://www.w3.org/2000/svg" width="124" height="124"><defs><clipPath id="c"><path fill="#fff" d="M70.5 29C84.03 29 95 39.969 95 53.5 95 67.03 84.03 78 70.5 78 56.969 78 46 67.03 46 53.5 46 39.969 56.969 29 70.5 29z"/></clipPath><filter id="a" width="169.5" height="169.5" x="-18.5" y="-27" filterUnits="userSpaceOnUse"><feOffset dx="-8.5" dy="8.5" in="SourceGraphic" result="FeOffset1032Out"/><feGaussianBlur in="FeOffset1032Out" result="FeGaussianBlur1033Out" stdDeviation="18.4 18.4"/></filter><mask id="b" width="2" height="2" x="-1" y="-1"><path fill="#fff" d="M46 29h49v49H46z"/><path d="M70.5 29C84.03 29 95 39.969 95 53.5 95 67.03 84.03 78 70.5 78 56.969 78 46 67.03 46 53.5 46 39.969 56.969 29 70.5 29z"/></mask></defs><g filter="url(#a)"><path fill="none" d="M70.5 29C84.03 29 95 39.969 95 53.5 95 67.03 84.03 78 70.5 78 56.969 78 46 67.03 46 53.5 46 39.969 56.969 29 70.5 29z" mask="url(&quot;#b&quot;)"/><path fill="#0d1059" fill-opacity=".33" d="M70.5 29C84.03 29 95 39.969 95 53.5 95 67.03 84.03 78 70.5 78 56.969 78 46 67.03 46 53.5 46 39.969 56.969 29 70.5 29z"/></g><path fill="#fff" d="M70.5 29C84.03 29 95 39.969 95 53.5 95 67.03 84.03 78 70.5 78 56.969 78 46 67.03 46 53.5 46 39.969 56.969 29 70.5 29z"/><path fill="none" stroke="#e1bb20" stroke-miterlimit="20" stroke-width="19.78" d="M70.5 29C84.03 29 95 39.969 95 53.5 95 67.03 84.03 78 70.5 78 56.969 78 46 67.03 46 53.5 46 39.969 56.969 29 70.5 29z" clip-path="url(&quot;#c&quot;)"/></svg>