<svg xmlns="http://www.w3.org/2000/svg" width="118" height="119"><defs><filter id="a" width="148" height="156" x="-15" y="-23" filterUnits="userSpaceOnUse"><feOffset dy="8" in="SourceGraphic" result="FeOffset1123Out"/><feGaussianBlur in="FeOffset1123Out" result="FeGaussianBlur1124Out" stdDeviation="9.6 9.6"/></filter><mask id="b" width="2" height="2" x="-1" y="-1"><path fill="#fff" d="M19 11h80v80H19z"/><path d="M59 91c22.091 0 40-17.909 40-40S81.091 11 59 11 19 28.909 19 51s17.909 40 40 40z"/></mask></defs><g filter="url(#a)"><path fill="none" d="M59 91c22.091 0 40-17.909 40-40S81.091 11 59 11 19 28.909 19 51s17.909 40 40 40z" mask="url(&quot;#b&quot;)"/><path fill="#22c3ca" fill-opacity=".32" d="M59 91c22.091 0 40-17.909 40-40S81.091 11 59 11 19 28.909 19 51s17.909 40 40 40z"/></g><path fill="#22c3ca" d="M59 91c22.091 0 40-17.909 40-40S81.091 11 59 11 19 28.909 19 51s17.909 40 40 40z"/><path fill="#fff" d="M75.912 61.475a19.452 19.452 0 01-4.404 6.771 20.169 20.169 0 01-1.763 1.55l-.218.172-.817.012c-7.2 0-14.658-3.329-20.462-9.13-6.093-6.094-9.418-13.749-9.241-21.12l.006-.277.17-.217c.49-.626 1.01-1.218 1.549-1.76a19.538 19.538 0 016.778-4.413 2.18 2.18 0 01.787-.133c.888 0 2.343.471 2.651 1.326.904 2.502 2.045 5.775 2.869 8.902.18.663-.07 2.382-.869 2.883L50 47.913c-.198.123-.278.345-.31.512-.098.501.087 1.15.48 1.691a42.462 42.462 0 004.015 4.704 41.858 41.858 0 004.678 3.986c.807.592 1.914.649 2.202.182l1.875-2.962c.58-.905 2.368-.915 2.387-.915.176 0 .328.015.463.045 3.82.854 6.09 1.585 8.993 2.902zM59.916 33.757a17.07 17.07 0 00-1.758-.09.834.834 0 010-1.667zm15.1 15.096l1.757 1.757a.834.834 0 01-1.666 0c0-.593-.031-1.18-.09-1.757zm-15.1-15.096c7.944.822 14.278 7.154 15.1 15.096l-5.807-5.805a13.304 13.304 0 012.348 7.562.833.833 0 11-1.668 0c0-6.464-5.264-11.722-11.734-11.722l-.833-.833c0-.46.373-.834.833-.834 2.81 0 5.42.868 7.576 2.35zm-2.594 9.799c0-.46.373-.833.833-.833 4.35 0 7.89 3.538 7.89 7.886a.833.833 0 11-1.667 0 6.23 6.23 0 00-6.223-6.22z"/></svg>